<svg width="64" height="20" viewBox="0 0 64 20" fill="none" xmlns="http://www.w3.org/2000/svg">
<path fill-rule="evenodd" clip-rule="evenodd" d="M14.1919 2.05806C14.436 2.30214 14.436 2.69786 14.1919 2.94194L7.13388 10L14.1919 17.0581C14.436 17.3021 14.436 17.6979 14.1919 17.9419C13.9479 18.186 13.5521 18.186 13.3081 17.9419L5.80806 10.4419C5.56398 10.1979 5.56398 9.80214 5.80806 9.55806L13.3081 2.05806C13.5521 1.81398 13.9479 1.81398 14.1919 2.05806Z" fill="black"/>
<path fill-rule="evenodd" clip-rule="evenodd" d="M49.8081 2.05806C50.0521 1.81398 50.4479 1.81398 50.6919 2.05806L58.1919 9.55806C58.436 9.80214 58.436 10.1979 58.1919 10.4419L50.6919 17.9419C50.4479 18.186 50.0521 18.186 49.8081 17.9419C49.564 17.6979 49.564 17.3021 49.8081 17.0581L56.8661 10L49.8081 2.94194C49.564 2.69786 49.564 2.30214 49.8081 2.05806Z" fill="black"/>
</svg>
